<svg width="158" height="19" xmlns="http://www.w3.org/2000/svg">
 <!-- Created with Method Draw - http://github.com/duopixel/Method-Draw/ -->

 <g>
  <title>background</title>
  <rect x="-1" y="-1" width="160" height="21" id="canvas_background" fill="#fff"/>
  <g id="canvasGrid" width="100%" height="100%" x="0" y="0" overflow="visible" display="none">
   <rect id="svg_1" width="1020" height="449" x="1" y="1" stroke-width="0" fill="url(#gridpattern)"/>
  </g>
 </g>
 <g>
  <title>Layer 1</title>
  <g id="svg_10" fill="#555">
   <g shape-rendering="crispEdges" id="svg_4" transform="matrix(1.1108961901441603,0,0,1.1108961901441603,0,0) ">
    <rect width="85" height="20" fill="#555" id="svg_5" y="0.352005" x="1.013929"/>
    <rect x="86.013929" width="57" height="20" fill="#007ec6" id="svg_6" y="0.352005"/>
   </g>
   <g fill="#fff" text-anchor="middle" font-family="Verdana,Geneva,DejaVu Sans,sans-serif" text-rendering="geometricPrecision" font-size="110" id="svg_7" transform="matrix(1.1108961901441603,0,0,1.1108961901441603,0,0) ">
    <text x="445.139294" y="-1777.370882" transform="translate(0,192.08909606933594) scale(0.10000000149011612) " fill="#fff" textLength="750" id="svg_8">latest release</text>
    <text x="1135.139294" y="-1777.370882" transform="translate(0,192.08909606933594) scale(0.10000000149011612) " fill="#fff" textLength="470" id="svg_9">v1.4.8.0</text>
   </g>
  </g>
  <rect fill="#000000" stroke="#000" stroke-width="1.5" x="0.5" y="1" width="94" height="21" id="svg_12"/>
  <rect fill="#007ec6" stroke-width="1.5" x="96.5" y="0" width="61" height="19" id="svg_13"/>
  <text fill="#ffffff" stroke-width="0" x="-315.837901" y="-205.938807" id="svg_14" font-size="24" font-family="Helvetica, Arial, sans-serif" text-anchor="start" xml:space="preserve" transform="matrix(0.5866333900721601,0,0,0.4930934275017762,209.1875910078941,116.7819309047312) " stroke="null">记事本</text>
  <text fill="#ffffff" stroke-width="0" x="-210.777313" y="-178.24043" id="svg_15" font-size="24" font-family="Helvetica, Arial, sans-serif" text-anchor="start" xml:space="preserve" transform="matrix(0.5783082246780394,0,0,0.5320201158330206,226.39425390958786,109.79286795838657) " stroke="null">1.0.0.0</text>
  <rect id="svg_2" height="25" width="71" y="-2.052083" x="1.5" stroke-width="1.5" stroke="#000" fill="#000000"/>
  <text stroke="#000" transform="matrix(0.5605947181169206,0,0,0.534765092599691,4.574963058700469,9.35282937614463) " xml:space="preserve" text-anchor="start" font-family="Helvetica, Arial, sans-serif" font-size="24" id="svg_3" y="9.817897" x="16.63528" stroke-width="0" fill="#ffffff">自签名文件</text>
 </g>
</svg>